<?xml version="1.0" encoding="iso-8859-1"?>
<!-- Generator: Adobe Illustrator 19.0.0, SVG Export Plug-In . SVG Version: 6.00 Build 0)  -->
<svg version="1.1" id="Capa_1" xmlns="http://www.w3.org/2000/svg" xmlns:xlink="http://www.w3.org/1999/xlink" x="0px" y="0px"
	 viewBox="0 0 512 512" style="enable-background:new 0 0 512 512;" xml:space="preserve">
<polygon style="fill:#F5D0C7;" points="235.246,91.922 295.641,61.724 337.876,78.618 402.14,120.641 357.278,125.988 
	309.427,115.294 268.299,123.522 265.562,164.641 309.427,164.641 399.893,172.868 447.001,222.215 506.814,222.215 
	506.814,103.959 430.792,44.83 287.194,11.043 194.279,78.618 "/>
<path style="fill:#FFD200;" d="M278.097,164.641c-5.533,41.618-43.755,70.878-85.373,65.345
	c-41.618-5.533-70.878-43.755-65.345-85.373c5.533-41.618,43.755-70.878,85.373-65.345c25.848,3.438,48.122,19.876,59.035,43.552"/>
<path style="fill:#F5D0C7;" d="M0,449.901h93.059l136.012,51.061h42.919l150.355-131.307l0,0
	c-16.429-16.742-42.665-18.853-61.561-4.95l-95.923,70.599l-93.059-43.772l46.306,4.899l39.591-4.899v-36.474h-42.944l-71.587-7.29
	l-50.107,21.886H0V449.901z"/>
<path style="fill:#8A0F00;" d="M236.513,139.63v-2.272c-1.098-13.371-11.944-23.854-25.341-24.496v-8.903h-16.894v8.878
	c-13.397,0.642-24.243,11.125-25.341,24.496c1.166,13.262,11.834,23.685,25.121,24.538l14.858,2.196
	c6.698,0.988,10.702,4.764,10.702,7.83c0,3.801-5.913,8.058-13.836,8.058h-6.116c-7.923,0.025-13.836-4.198-13.836-8.033v-2.272
	h-16.894v2.272c1.098,13.371,11.944,23.854,25.341,24.496v6.758h16.894v-6.758c13.397-0.642,24.243-11.125,25.341-24.496
	c-1.166-13.262-11.834-23.685-25.121-24.538l-14.858-2.196c-6.698-0.988-10.702-4.764-10.702-7.83c0-3.801,5.913-8.058,13.836-8.058
	h6.116c7.923,0,13.836,4.223,13.836,8.058v2.272L236.513,139.63z"/>
<polygon style="fill:#F5D0C7;" points="244.96,87.065 295.641,61.724 337.876,78.618 402.14,120.641 357.278,125.988 
	309.427,115.294 268.299,123.522 265.562,164.641 309.427,164.641 399.893,172.868 447.001,222.215 506.814,222.215 
	506.814,103.959 430.792,44.83 287.194,11.043 "/>
<path d="M430.792,369.968c0.084-2.323-0.786-4.578-2.407-6.234c-19.428-19.622-50.284-22.105-72.601-5.837l-91.885,67.626
	l-44.177-20.779l39.025-4.823c4.232-0.524,7.408-4.114,7.408-8.379v-36.474c0-4.663-3.784-8.447-8.447-8.447h-42.522l-71.157-7.264
	c-1.444-0.135-2.897,0.093-4.223,0.667L91.311,361.2H0v16.894h93.059c1.166,0,2.314-0.237,3.379-0.71l48.071-20.991l69.383,7.078
	c0.287,0,0.574,0.042,0.845,0.042h34.506v20.56l-31.254,3.852l-45.343-4.781c-4.637-0.498-8.802,2.855-9.3,7.492
	c-0.389,3.59,1.546,7.028,4.815,8.557l93.102,43.763c2.804,1.318,6.107,0.988,8.599-0.845l95.931-70.599
	c12.789-9.351,29.978-9.993,43.434-1.63L268.848,492.516H230.6L96.024,441.986c-0.946-0.355-1.951-0.541-2.965-0.541H0v16.894
	h91.522l134.576,50.538c0.946,0.355,1.951,0.532,2.965,0.532h42.927c2.044,0,4.021-0.743,5.558-2.086l150.355-131.315
	C429.66,374.479,430.699,372.299,430.792,369.968z"/>
<path d="M289.036,20.149l138.031,32.487l74.561,57.988L512,97.294l-76.022-59.128c-0.963-0.743-2.069-1.275-3.252-1.563
	L289.129,2.815c-2.39-0.566-4.916-0.051-6.901,1.394l-92.172,67.009c-46.095,7.019-77.779,50.073-70.76,96.168
	s50.073,77.779,96.168,70.76c34.43-5.237,62.102-31.085,69.695-65.066h23.499l87.316,7.932l44.954,47.032
	c1.596,1.672,3.801,2.619,6.116,2.619h59.77v-16.894h-56.197L406,167.04c-1.411-1.478-3.303-2.39-5.338-2.585l-91.226-8.253h-34.852
	l1.689-25.67l33.027-6.605l46.112,10.297c0.929,0.211,1.892,0.262,2.838,0.152l44.861-5.347l-2.002-16.784l-43.417,5.178
	l-46.458-10.373c-1.149-0.253-2.348-0.253-3.497,0l-31.608,6.318c-4.857-8.726-11.226-16.522-18.803-23.018l38.704-19.335
	l38.712,15.483l6.268-15.694l-42.234-16.894c-2.238-0.887-4.747-0.786-6.91,0.287l-50.681,25.341l0.118,0.245
	c-7.315-3.784-15.145-6.479-23.237-7.991L289.036,20.149z M260.629,120.05c-0.431,0.912-0.684,1.901-0.76,2.906l-2.745,41.128
	c-0.313,4.654,3.21,8.683,7.864,8.996c0.194,0.017,0.389,0.017,0.583,0.017h2.129c-10.119,35.992-47.497,56.974-83.498,46.855
	c-35.992-10.119-56.974-47.497-46.855-83.498c10.119-35.992,47.497-56.974,83.498-46.855c16.674,4.688,30.916,15.585,39.802,30.46
	L260.629,120.05z"/>
<path d="M194.279,103.959v8.878c-13.397,0.642-24.243,11.125-25.341,24.496c1.166,13.262,11.834,23.685,25.121,24.538l14.858,2.196
	c6.698,0.988,10.702,4.764,10.702,7.83c0,3.801-5.913,8.058-13.836,8.058h-6.116c-7.923,0.025-13.836-4.198-13.836-8.033v-2.272
	h-16.894v2.272c0,13.971,13.515,24.952,30.73,24.952h6.116c17.215,0,30.73-10.981,30.73-24.952
	c-1.166-13.262-11.834-23.685-25.121-24.538l-14.858-2.196c-6.698-0.988-10.702-4.764-10.702-7.83c0-3.801,5.913-8.058,13.836-8.058
	h6.116c7.923,0,13.836,4.223,13.836,8.058v2.272h16.894v-2.272c-1.098-13.371-11.944-23.854-25.341-24.496v-8.903H194.279z"/>
<g>
</g>
<g>
</g>
<g>
</g>
<g>
</g>
<g>
</g>
<g>
</g>
<g>
</g>
<g>
</g>
<g>
</g>
<g>
</g>
<g>
</g>
<g>
</g>
<g>
</g>
<g>
</g>
<g>
</g>
</svg>
